<?xml version="1.0" encoding="UTF-8" standalone="no"?>
<svg xmlns:ffdec="https://www.free-decompiler.com/flash" xmlns:xlink="http://www.w3.org/1999/xlink" ffdec:objectType="shape" height="580.1px" width="228.05px" xmlns="http://www.w3.org/2000/svg">
  <g transform="matrix(1.0, 0.0, 0.0, 1.0, 76.05, 220.05)">
    <path d="M95.25 92.5 Q104.3 96.5 111.9 104.1 128.0 120.2 128.0 143.0 128.0 165.8 111.9 181.9 L108.6 185.0 111.9 188.1 Q128.0 204.2 128.0 227.0 128.0 242.6 120.45 255.1 128.8 259.05 135.9 266.15 152.0 282.25 152.0 305.05 152.0 327.85 135.9 343.95 119.8 360.05 97.0 360.05 74.2 360.05 58.1 343.95 42.0 327.85 42.0 305.05 42.0 289.45 49.55 276.95 41.2 273.0 34.1 265.9 18.0 249.8 18.0 227.0 18.0 204.2 34.1 188.1 L37.45 185.0 34.1 181.9 Q18.0 165.8 18.0 143.0 18.0 121.2 32.75 105.5 23.7 101.5 16.1 93.9 0.0 77.8 0.0 55.0 0.0 32.2 16.1 16.1 32.2 0.0 55.0 0.0 77.8 0.0 93.9 16.1 110.0 32.2 110.0 55.0 110.0 76.8 95.25 92.5" fill="#ff0000" fill-rule="evenodd" stroke="none"/>
    <path d="M17.85 -126.15 Q1.75 -110.05 -21.05 -110.05 -43.85 -110.05 -59.95 -126.15 -76.05 -142.25 -76.05 -165.05 -76.05 -187.85 -59.95 -203.95 -43.85 -220.05 -21.05 -220.05 1.75 -220.05 17.85 -203.95 33.95 -187.85 33.95 -165.05 33.95 -142.25 17.85 -126.15" fill="#ff0000" fill-rule="evenodd" stroke="none"/>
    <path d="M17.85 93.9 Q1.75 110.0 -21.05 110.0 -43.85 110.0 -59.95 93.9 -76.05 77.8 -76.05 55.0 -76.05 32.2 -59.95 16.1 -43.85 0.0 -21.05 0.0 1.75 0.0 17.85 16.1 33.95 32.2 33.95 55.0 33.95 77.8 17.85 93.9" fill="#ff0000" fill-rule="evenodd" stroke="none"/>
  </g>
</svg>
