<?xml version="1.0" encoding="UTF-8" standalone="no"?>
<svg xmlns:ffdec="https://www.free-decompiler.com/flash" xmlns:xlink="http://www.w3.org/1999/xlink" ffdec:objectType="shape" height="580.1px" width="310.1px" xmlns="http://www.w3.org/2000/svg">
  <g transform="matrix(1.0, 0.0, 0.0, 1.0, 158.1, 220.05)">
    <path d="M-21.05 -220.05 Q1.75 -220.05 17.85 -203.95 33.95 -187.85 33.95 -165.05 33.95 -142.25 17.85 -126.15 1.75 -110.05 -21.05 -110.05 -43.85 -110.05 -59.95 -126.15 -76.05 -142.25 -76.05 -165.05 -76.05 -187.85 -59.95 -203.95 -43.85 -220.05 -21.05 -220.05 M95.25 92.5 Q104.3 96.5 111.9 104.1 128.0 120.2 128.0 143.0 128.0 165.8 111.9 181.9 L108.6 185.0 111.9 188.1 Q128.0 204.2 128.0 227.0 128.0 242.6 120.45 255.1 128.8 259.05 135.9 266.15 152.0 282.25 152.0 305.05 152.0 327.85 135.9 343.95 119.8 360.05 97.0 360.05 74.2 360.05 58.1 343.95 42.0 327.85 42.0 305.05 42.0 289.45 49.55 276.95 45.25 274.9 41.3 272.05 26.6 284.0 6.95 284.0 -15.85 284.0 -31.95 267.9 -48.05 251.8 -48.05 229.0 -48.05 206.2 -31.95 190.1 L-27.65 186.2 Q-37.7 182.15 -45.95 173.9 -62.05 157.8 -62.05 135.0 -62.05 115.85 -50.7 101.45 -55.25 98.5 -59.35 94.5 L-64.2 99.9 Q-80.3 116.0 -103.1 116.0 -125.9 116.0 -142.0 99.9 -158.1 83.8 -158.1 61.0 -158.1 38.2 -142.0 22.1 -125.9 6.0 -103.1 6.0 -80.7 6.0 -64.75 21.55 -62.6 18.75 -59.95 16.1 -43.85 0.0 -21.05 0.0 1.15 0.0 17.0 15.25 32.8 0.0 55.0 0.0 77.8 0.0 93.9 16.1 110.0 32.2 110.0 55.0 110.0 76.8 95.25 92.5 M32.3 180.0 L29.25 176.4 27.6 177.85 Q29.95 178.8 32.3 180.0" fill="#ff0000" fill-rule="evenodd" stroke="none"/>
  </g>
</svg>
