<?xml version="1.0" encoding="UTF-8" standalone="no"?>
<svg xmlns:ffdec="https://www.free-decompiler.com/flash" xmlns:xlink="http://www.w3.org/1999/xlink" ffdec:objectType="shape" height="582.1px" width="310.1px" xmlns="http://www.w3.org/2000/svg">
  <g transform="matrix(1.0, 0.0, 0.0, 1.0, 158.1, 220.05)">
    <path d="M17.85 -126.15 Q1.75 -110.05 -21.05 -110.05 -43.85 -110.05 -59.95 -126.15 -76.05 -142.25 -76.05 -165.05 -76.05 -187.85 -59.95 -203.95 -43.85 -220.05 -21.05 -220.05 1.75 -220.05 17.85 -203.95 33.95 -187.85 33.95 -165.05 33.95 -142.25 17.85 -126.15 M-59.95 16.1 Q-43.85 0.0 -21.05 0.0 1.15 0.0 17.0 15.25 32.8 0.0 55.0 0.0 77.8 0.0 93.9 16.1 110.0 32.2 110.0 55.0 110.0 76.8 95.25 92.5 104.3 96.5 111.9 104.1 128.0 120.2 128.0 143.0 128.0 165.8 111.9 181.9 L108.6 185.0 111.9 188.1 Q128.0 204.2 128.0 227.0 128.0 242.6 120.45 255.1 128.8 259.05 135.9 266.15 152.0 282.25 152.0 305.05 152.0 327.85 135.9 343.95 119.8 360.05 97.0 360.05 74.2 360.05 58.1 343.95 52.25 338.1 48.5 331.35 44.6 339.2 37.85 345.95 21.75 362.05 -1.05 362.05 -23.85 362.05 -39.95 345.95 -56.05 329.85 -56.05 307.05 -56.05 290.0 -47.05 276.7 L-47.6 276.7 Q-70.4 276.7 -86.5 260.6 -102.6 244.5 -102.6 221.7 -102.6 207.3 -96.2 195.6 -114.45 193.45 -128.0 179.9 -144.1 163.8 -144.1 141.0 -144.1 121.85 -132.75 107.45 -137.65 104.25 -142.0 99.9 -158.1 83.8 -158.1 61.0 -158.1 38.2 -142.0 22.1 -125.9 6.0 -103.1 6.0 -80.7 6.0 -64.75 21.55 -62.6 18.75 -59.95 16.1 M-59.0 94.85 L-59.35 94.5 -59.4 94.55 -59.0 94.85 M-50.75 101.55 L-50.7 101.45 -51.1 101.2 -50.75 101.55 M32.3 180.0 L29.25 176.4 27.6 177.85 Q29.95 178.8 32.3 180.0 M47.45 280.8 L49.55 276.95 Q45.45 275.0 41.65 272.35 45.0 276.35 47.45 280.8" fill="#ff0000" fill-rule="evenodd" stroke="none"/>
  </g>
</svg>
