<?xml version="1.0" encoding="UTF-8" standalone="no"?>
<svg xmlns:ffdec="https://www.free-decompiler.com/flash" xmlns:xlink="http://www.w3.org/1999/xlink" ffdec:objectType="shape" height="582.1px" width="492.15px" xmlns="http://www.w3.org/2000/svg">
  <g transform="matrix(1.0, 0.0, 0.0, 1.0, 340.15, 220.05)">
    <path d="M-59.95 16.1 Q-43.85 0.0 -21.05 0.0 1.15 0.0 17.0 15.25 32.8 0.0 55.0 0.0 77.8 0.0 93.9 16.1 110.0 32.2 110.0 55.0 110.0 76.8 95.25 92.5 104.3 96.5 111.9 104.1 128.0 120.2 128.0 143.0 128.0 165.8 111.9 181.9 L108.6 185.0 111.9 188.1 Q128.0 204.2 128.0 227.0 128.0 242.6 120.45 255.1 128.8 259.05 135.9 266.15 152.0 282.25 152.0 305.05 152.0 327.85 135.9 343.95 119.8 360.05 97.0 360.05 74.2 360.05 58.1 343.95 52.25 338.1 48.5 331.35 44.6 339.2 37.85 345.95 21.75 362.05 -1.05 362.05 -23.85 362.05 -39.95 345.95 -56.05 329.85 -56.05 307.05 -56.05 290.0 -47.05 276.7 L-47.6 276.7 Q-70.4 276.7 -86.5 260.6 -102.6 244.5 -102.6 221.7 -102.6 207.3 -96.2 195.6 -114.45 193.45 -128.0 179.9 -144.1 163.8 -144.1 141.0 -144.1 121.85 -132.75 107.45 -137.65 104.25 -142.0 99.9 -145.7 96.2 -148.5 92.2 L-150.2 93.9 Q-166.3 110.0 -189.1 110.0 -211.9 110.0 -228.0 93.9 -244.1 77.8 -244.1 55.0 -244.1 32.2 -228.0 16.1 -211.9 0.0 -189.1 0.0 -166.3 0.0 -150.2 16.1 -146.5 19.8 -143.65 23.85 L-142.0 22.1 Q-125.9 6.0 -103.1 6.0 -80.7 6.0 -64.75 21.55 -62.6 18.75 -59.95 16.1 M-59.0 94.85 L-59.35 94.5 -59.4 94.55 -59.0 94.85 M-50.75 101.55 L-50.7 101.45 -51.1 101.2 -50.75 101.55 M32.3 180.0 L29.25 176.4 27.6 177.85 Q29.95 178.8 32.3 180.0 M47.45 280.8 L49.55 276.95 Q45.45 275.0 41.65 272.35 45.0 276.35 47.45 280.8" fill="#ff0000" fill-rule="evenodd" stroke="none"/>
    <path d="M17.85 -126.15 Q1.75 -110.05 -21.05 -110.05 -43.85 -110.05 -59.95 -126.15 -76.05 -142.25 -76.05 -165.05 -76.05 -187.85 -59.95 -203.95 -43.85 -220.05 -21.05 -220.05 1.75 -220.05 17.85 -203.95 33.95 -187.85 33.95 -165.05 33.95 -142.25 17.85 -126.15" fill="#ff0000" fill-rule="evenodd" stroke="none"/>
    <path d="M-246.25 93.9 Q-262.35 110.0 -285.15 110.0 -307.95 110.0 -324.05 93.9 -340.15 77.8 -340.15 55.0 -340.15 32.2 -324.05 16.1 -307.95 0.0 -285.15 0.0 -262.35 0.0 -246.25 16.1 -230.15 32.2 -230.15 55.0 -230.15 77.8 -246.25 93.9" fill="#ff0000" fill-rule="evenodd" stroke="none"/>
    <path d="M-136.25 173.9 Q-152.35 190.0 -175.15 190.0 -197.95 190.0 -214.05 173.9 -230.15 157.8 -230.15 135.0 -230.15 112.2 -214.05 96.1 -197.95 80.0 -175.15 80.0 -152.35 80.0 -136.25 96.1 -120.15 112.2 -120.15 135.0 -120.15 157.8 -136.25 173.9" fill="#ff0000" fill-rule="evenodd" stroke="none"/>
    <path d="M-92.15 270.3 Q-108.25 286.4 -131.05 286.4 -153.85 286.4 -169.95 270.3 -186.05 254.2 -186.05 231.4 -186.05 208.6 -169.95 192.5 -153.85 176.4 -131.05 176.4 -108.25 176.4 -92.15 192.5 -76.05 208.6 -76.05 231.4 -76.05 254.2 -92.15 270.3" fill="#ff0000" fill-rule="evenodd" stroke="none"/>
    <path d="M-46.15 345.95 Q-62.25 362.05 -85.05 362.05 -107.85 362.05 -123.95 345.95 -140.05 329.85 -140.05 307.05 -140.05 284.25 -123.95 268.15 -107.85 252.05 -85.05 252.05 -62.25 252.05 -46.15 268.15 -30.05 284.25 -30.05 307.05 -30.05 329.85 -46.15 345.95" fill="#ff0000" fill-rule="evenodd" stroke="none"/>
  </g>
</svg>
