<?xml version="1.0" encoding="UTF-8" standalone="no"?>
<svg xmlns:ffdec="https://www.free-decompiler.com/flash" xmlns:xlink="http://www.w3.org/1999/xlink" ffdec:objectType="shape" height="633.7px" width="635.0px" xmlns="http://www.w3.org/2000/svg">
  <g transform="matrix(1.0, 0.0, 0.0, 1.0, 483.0, 220.05)">
    <path d="M17.85 -126.15 Q1.75 -110.05 -21.05 -110.05 -43.85 -110.05 -59.95 -126.15 -76.05 -142.25 -76.05 -165.05 -76.05 -187.85 -59.95 -203.95 -43.85 -220.05 -21.05 -220.05 1.75 -220.05 17.85 -203.95 33.95 -187.85 33.95 -165.05 33.95 -142.25 17.85 -126.15 M-357.95 -43.0 Q-335.15 -43.0 -319.05 -26.9 -306.2 -14.05 -303.6 3.0 -295.0 0.0 -285.15 0.0 -262.35 0.0 -246.25 16.1 -240.75 21.6 -237.1 27.9 -233.5 21.6 -228.0 16.1 -211.9 0.0 -189.1 0.0 -166.3 0.0 -150.2 16.1 -146.5 19.8 -143.65 23.85 L-142.0 22.1 Q-125.9 6.0 -103.1 6.0 -80.7 6.0 -64.75 21.55 -62.6 18.75 -59.95 16.1 -43.85 0.0 -21.05 0.0 1.15 0.0 17.0 15.25 32.8 0.0 55.0 0.0 77.8 0.0 93.9 16.1 110.0 32.2 110.0 55.0 110.0 76.8 95.25 92.5 104.3 96.5 111.9 104.1 128.0 120.2 128.0 143.0 128.0 165.8 111.9 181.9 L108.6 185.0 111.9 188.1 Q128.0 204.2 128.0 227.0 128.0 242.6 120.45 255.1 128.8 259.05 135.9 266.15 152.0 282.25 152.0 305.05 152.0 327.85 135.9 343.95 119.8 360.05 97.0 360.05 74.2 360.05 58.1 343.95 52.25 338.1 48.5 331.35 44.6 339.2 37.85 345.95 21.75 362.05 -1.05 362.05 -23.85 362.05 -39.95 345.95 L-43.05 342.65 -46.15 345.95 Q-62.25 362.05 -85.05 362.05 -92.85 362.05 -99.8 360.2 -115.85 375.95 -138.4 375.95 -161.2 375.95 -177.3 359.85 -187.45 349.7 -191.2 336.9 L-192.4 337.45 Q-188.35 347.2 -188.35 358.65 -188.35 381.45 -204.45 397.55 -220.55 413.65 -243.35 413.65 -266.15 413.65 -282.25 397.55 -298.35 381.45 -298.35 358.65 L-298.05 352.5 Q-301.9 359.9 -308.25 366.25 -324.35 382.35 -347.15 382.35 -369.95 382.35 -386.05 366.25 -402.15 350.15 -402.15 327.35 -402.15 315.0 -397.4 304.6 L-401.15 304.7 Q-423.95 304.7 -440.05 288.6 -456.15 272.5 -456.15 249.7 -456.15 226.9 -440.05 210.8 -432.25 203.0 -422.9 199.0 -424.1 193.25 -424.1 187.0 -424.1 183.35 -423.65 179.85 L-428.0 180.0 Q-450.8 180.0 -466.9 163.9 -483.0 147.8 -483.0 125.0 -483.0 102.2 -466.9 86.1 -452.85 72.05 -433.65 70.25 L-434.1 63.0 Q-434.1 40.2 -418.0 24.1 -415.35 21.45 -412.5 19.25 -412.95 15.7 -412.95 12.0 -412.95 -10.8 -396.85 -26.9 -380.75 -43.0 -357.95 -43.0 M-59.0 94.85 L-59.35 94.5 -59.4 94.55 -59.0 94.85 M-131.25 176.4 L-134.55 172.15 -136.25 173.9 -139.55 177.0 -131.25 176.4 M-50.75 101.55 L-50.7 101.45 -51.1 101.2 -50.75 101.55 M-308.9 194.7 Q-308.8 190.95 -308.2 187.45 -311.1 189.0 -314.15 190.25 L-314.45 193.9 -308.9 194.7 M-171.05 193.65 L-169.95 192.5 -166.6 189.4 -174.85 190.0 -172.2 192.5 -171.05 193.65 M32.3 180.0 L29.25 176.4 27.6 177.85 Q29.95 178.8 32.3 180.0 M47.45 280.8 L49.55 276.95 Q45.45 275.0 41.65 272.35 45.0 276.35 47.45 280.8" fill="#ff0000" fill-rule="evenodd" stroke="none"/>
  </g>
</svg>
